<?xml version="1.0" encoding="iso-8859-1"?>
<!-- Generator: Adobe Illustrator 19.0.0, SVG Export Plug-In . SVG Version: 6.00 Build 0)  -->
<svg version="1.1" id="Capa_1" xmlns="http://www.w3.org/2000/svg" xmlns:xlink="http://www.w3.org/1999/xlink" x="0px" y="0px"
	 viewBox="0 0 512.001 512.001" style="enable-background:new 0 0 512.001 512.001;" xml:space="preserve">
<g>
	<circle style="fill:#FFD200;" cx="375.467" cy="170.663" r="128"/>
	<circle style="fill:#FFD200;" cx="375.467" cy="366.93" r="128"/>
</g>
<g>
	<path style="fill:#8A0F00;" d="M375.467,503.463c-29.559,0.085-58.325-9.506-81.92-27.307l10.24-13.653
		c20.642,15.582,45.815,23.97,71.68,23.893c65.98,0,119.467-53.487,119.467-119.467s-53.487-119.467-119.467-119.467
		c-25.847,0-51.004,8.38-71.68,23.893l-10.24-13.653c23.595-17.801,52.361-27.392,81.92-27.307
		C450.876,230.396,512,291.521,512,366.93S450.876,503.463,375.467,503.463z"/>
	<path style="fill:#8A0F00;" d="M484.693,252.583l-13.653-10.24c39.586-52.787,28.894-127.667-23.893-167.253
		c-42.479-31.855-100.881-31.855-143.36,0l-10.24-13.653c23.595-17.801,52.361-27.392,81.92-27.307
		C450.833,34.215,511.915,95.297,512,170.663C512.085,200.214,502.494,228.988,484.693,252.583z"/>
	<path style="fill:#8A0F00;" d="M372.053,452.263h-10.24c-25.446,0-46.08-20.634-46.08-46.08l0,0v-5.12H332.8v5.12
		c0,16.026,12.988,29.013,29.013,29.013l0,0h10.24c16.026-0.179,28.868-13.312,28.689-29.329
		c-0.154-13.585-9.711-25.25-22.997-28.066l-25.037-5.009c-24.917-5.18-40.917-29.577-35.746-54.494
		c4.42-21.282,23.117-36.582,44.851-36.702h10.24c25.446,0,46.08,20.634,46.08,46.08l0,0v5.12h-17.067v-5.12
		c0-16.026-12.988-29.013-29.013-29.013l0,0h-10.24c-16.026,0.179-28.868,13.312-28.689,29.329
		c0.154,13.585,9.711,25.25,22.997,28.066l25.037,5.009c24.917,5.18,40.917,29.577,35.746,54.494
		C412.476,436.835,393.788,452.135,372.053,452.263z"/>
	<rect x="358.4" y="273.063" style="fill:#8A0F00;" width="17.067" height="187.733"/>
	<path style="fill:#8A0F00;" d="M339.738,250.382c-14.805-8.081-24.013-23.603-24.004-40.465v-5.12H332.8v5.12
		c0,10.607,5.803,20.369,15.113,25.455L339.738,250.382z"/>
	<path style="fill:#8A0F00;" d="M401.323,245.526l-10.837-13.184c12.356-10.206,14.106-28.493,3.9-40.849
		c-4.233-5.129-10.095-8.644-16.606-9.958l-25.037-5.009c-24.917-5.18-40.917-29.568-35.746-54.485
		c4.42-21.274,23.091-36.565,44.817-36.71h10.24c25.446,0,46.08,20.634,46.08,46.08l0,0v5.12h-17.067v-5.12
		c0-16.026-12.988-29.013-29.013-29.013l0,0h-10.24c-16.026,0.179-28.868,13.312-28.689,29.329
		c0.154,13.585,9.711,25.25,22.997,28.066l25.037,5.009c24.943,5.035,41.088,29.338,36.053,54.281
		c-2.091,10.377-7.689,19.712-15.855,26.445L401.323,245.526z"/>
	<rect x="358.4" y="76.796" style="fill:#8A0F00;" width="17.067" height="162.389"/>
</g>
<g>
	<rect x="8.533" y="85.33" style="fill:#FFC309;" width="256" height="68.267"/>
	<rect x="20.267" y="17.063" style="fill:#FFC309;" width="256" height="68.267"/>
</g>
<path style="fill:#8A0F00;" d="M284.8,93.863H11.733V8.53H284.8V93.863z M28.8,76.796h238.933v-51.2H28.8V76.796z"/>
<g>
	<rect x="34.133" y="153.596" style="fill:#FFC309;" width="256" height="68.267"/>
	<rect x="17.067" y="221.863" style="fill:#FFC309;" width="256" height="68.267"/>
	<rect x="25.6" y="290.13" style="fill:#FFC309;" width="256" height="68.267"/>
	<rect x="42.667" y="358.396" style="fill:#FFC309;" width="256" height="68.267"/>
	<rect x="20.267" y="426.663" style="fill:#FFC309;" width="256" height="68.267"/>
</g>
<g>
	<path style="fill:#8A0F00;" d="M273.067,162.13H0V76.796h273.067V162.13z M17.067,145.063H256v-51.2H17.067V145.063z"/>
	<path style="fill:#8A0F00;" d="M298.667,230.396H25.6v-85.333h273.067V230.396z M42.667,213.33H281.6v-51.2H42.667V213.33z"/>
	<path style="fill:#8A0F00;" d="M281.6,298.663H8.533V213.33H281.6V298.663z M25.6,281.596h238.933v-51.2H25.6V281.596z"/>
	<path style="fill:#8A0F00;" d="M290.133,366.93H17.067v-85.333h273.067V366.93z M34.133,349.863h238.933v-51.2H34.133V349.863z"/>
	<path style="fill:#8A0F00;" d="M307.2,435.196H34.133v-85.333H307.2V435.196z M51.2,418.13h238.933v-51.2H51.2V418.13z"/>
	<path style="fill:#8A0F00;" d="M284.8,503.463H11.733V418.13H284.8V503.463z M28.8,486.396h238.933v-51.2H28.8V486.396z"/>
	<rect x="213.333" y="85.33" style="fill:#8A0F00;" width="17.067" height="68.267"/>
	<rect x="170.667" y="85.33" style="fill:#8A0F00;" width="17.067" height="68.267"/>
	<rect x="128" y="85.33" style="fill:#8A0F00;" width="17.067" height="68.267"/>
	<rect x="85.333" y="85.33" style="fill:#8A0F00;" width="17.067" height="68.267"/>
	<rect x="42.667" y="85.33" style="fill:#8A0F00;" width="17.067" height="68.267"/>
	<rect x="225.067" y="17.063" style="fill:#8A0F00;" width="17.067" height="68.267"/>
	<rect x="182.4" y="17.063" style="fill:#8A0F00;" width="17.067" height="68.267"/>
	<rect x="139.733" y="17.063" style="fill:#8A0F00;" width="17.067" height="68.267"/>
	<rect x="97.067" y="17.063" style="fill:#8A0F00;" width="17.067" height="68.267"/>
	<rect x="54.4" y="17.063" style="fill:#8A0F00;" width="17.067" height="68.267"/>
	<rect x="238.933" y="153.596" style="fill:#8A0F00;" width="17.067" height="68.267"/>
	<rect x="196.267" y="153.596" style="fill:#8A0F00;" width="17.067" height="68.267"/>
	<rect x="153.6" y="153.596" style="fill:#8A0F00;" width="17.067" height="68.267"/>
	<rect x="110.933" y="153.596" style="fill:#8A0F00;" width="17.067" height="68.267"/>
	<rect x="68.267" y="153.596" style="fill:#8A0F00;" width="17.067" height="68.267"/>
	<rect x="221.867" y="221.863" style="fill:#8A0F00;" width="17.067" height="68.267"/>
	<rect x="179.2" y="221.863" style="fill:#8A0F00;" width="17.067" height="68.267"/>
	<rect x="136.533" y="221.863" style="fill:#8A0F00;" width="17.067" height="68.267"/>
	<rect x="93.867" y="221.863" style="fill:#8A0F00;" width="17.067" height="68.267"/>
	<rect x="51.2" y="221.863" style="fill:#8A0F00;" width="17.067" height="68.267"/>
	<rect x="230.4" y="290.13" style="fill:#8A0F00;" width="17.067" height="68.267"/>
	<rect x="187.733" y="290.13" style="fill:#8A0F00;" width="17.067" height="68.267"/>
	<rect x="145.067" y="290.13" style="fill:#8A0F00;" width="17.067" height="68.267"/>
	<rect x="102.4" y="290.13" style="fill:#8A0F00;" width="17.067" height="68.267"/>
	<rect x="59.733" y="290.13" style="fill:#8A0F00;" width="17.067" height="68.267"/>
	<rect x="247.467" y="358.396" style="fill:#8A0F00;" width="17.067" height="68.267"/>
	<rect x="204.8" y="358.396" style="fill:#8A0F00;" width="17.067" height="68.267"/>
	<rect x="162.133" y="358.396" style="fill:#8A0F00;" width="17.067" height="68.267"/>
	<rect x="119.467" y="358.396" style="fill:#8A0F00;" width="17.067" height="68.267"/>
	<rect x="76.8" y="358.396" style="fill:#8A0F00;" width="17.067" height="68.267"/>
	<rect x="225.067" y="426.663" style="fill:#8A0F00;" width="17.067" height="68.267"/>
	<rect x="182.4" y="426.663" style="fill:#8A0F00;" width="17.067" height="68.267"/>
	<rect x="139.733" y="426.663" style="fill:#8A0F00;" width="17.067" height="68.267"/>
	<rect x="97.067" y="426.663" style="fill:#8A0F00;" width="17.067" height="68.267"/>
	<rect x="54.4" y="426.663" style="fill:#8A0F00;" width="17.067" height="68.267"/>
</g>
<path d="M8.533,162.13H25.6v51.2h-8.533c-4.71,0-8.533,3.823-8.533,8.533v68.267c0,4.71,3.823,8.533,8.533,8.533v59.733
	c0,4.71,3.823,8.533,8.533,8.533h8.533v51.2H20.267c-4.71,0-8.533,3.823-8.533,8.533v68.267c0,4.71,3.823,8.533,8.533,8.533h256
	c4.71,0,8.533-3.823,8.533-8.533v-59.733h13.867c4.71,0,8.533-3.823,8.533-8.533v-68.267c0-4.71-3.823-8.533-8.533-8.533h-8.533
	V290.13c0-4.71-3.823-8.533-8.533-8.533v-51.2h8.533c4.71,0,8.533-3.823,8.533-8.533v-68.267c0-4.71-3.823-8.533-8.533-8.533
	h-17.067v-51.2h3.2c4.71,0,8.533-3.823,8.533-8.533V17.063c0-4.71-3.823-8.533-8.533-8.533h-256c-4.71,0-8.533,3.823-8.533,8.533
	v59.733h-3.2C3.823,76.796,0,80.619,0,85.33v68.267C0,158.307,3.823,162.13,8.533,162.13z M25.6,281.596v-51.2h25.6v51.2H25.6z
	 M264.533,281.596h-25.6v-51.2h25.6V281.596z M273.067,298.663v51.2h-25.6v-51.2H273.067z M221.867,366.93h25.6v51.2h-25.6V366.93z
	 M204.8,349.863v-51.2h25.6v51.2H204.8z M238.933,213.33h-25.6v-51.2h25.6V213.33z M221.867,230.396v51.2h-25.6v-51.2H221.867z
	 M179.2,366.93h25.6v51.2h-25.6V366.93z M162.133,349.863v-51.2h25.6v51.2H162.133z M196.267,213.33h-25.6v-51.2h25.6V213.33z
	 M179.2,230.396v51.2h-25.6v-51.2H179.2z M136.533,366.93h25.6v51.2h-25.6V366.93z M119.467,349.863v-51.2h25.6v51.2H119.467z
	 M153.6,213.33H128v-51.2h25.6V213.33z M136.533,230.396v51.2h-25.6v-51.2H136.533z M93.867,366.93h25.6v51.2h-25.6V366.93z
	 M76.8,349.863v-51.2h25.6v51.2H76.8z M110.933,213.33h-25.6v-51.2h25.6V213.33z M93.867,230.396v51.2h-25.6v-51.2H93.867z
	 M51.2,366.93h25.6v51.2H51.2V366.93z M42.667,349.863h-8.533v-51.2h25.6v51.2H42.667z M68.267,213.33h-25.6v-51.2h25.6V213.33z
	 M54.4,486.396H28.8v-51.2h25.6V486.396z M97.067,486.396h-25.6v-51.2h25.6V486.396z M139.733,486.396h-25.6v-51.2h25.6V486.396z
	 M182.4,486.396h-25.6v-51.2h25.6V486.396z M225.067,486.396h-25.6v-51.2h25.6V486.396z M267.733,486.396h-25.6v-51.2h25.6V486.396z
	 M290.133,366.93v51.2h-25.6v-51.2H290.133z M281.6,162.13v51.2H256v-51.2H281.6z M242.133,25.596h25.6v51.2h-25.6V25.596z
	 M230.4,93.863H256v51.2h-25.6V93.863z M199.467,25.596h25.6v51.2h-25.6V25.596z M187.733,93.863h25.6v51.2h-25.6V93.863z
	 M156.8,25.596h25.6v51.2h-25.6V25.596z M145.067,93.863h25.6v51.2h-25.6V93.863z M114.133,25.596h25.6v51.2h-25.6V25.596z
	 M102.4,93.863H128v51.2h-25.6V93.863z M71.467,25.596h25.6v51.2h-25.6V25.596z M59.733,93.863h25.6v51.2h-25.6V93.863z
	 M28.8,25.596h25.6v51.2H28.8V25.596z M17.067,93.863h25.6v51.2h-25.6V93.863z"/>
<path d="M512,366.93c-0.111-61.807-41.702-115.849-101.419-131.789c13.943-21.222,8.038-49.732-13.184-63.676
	c-4.949-3.251-10.47-5.513-16.273-6.665l-5.658-1.135v-60.928c14.566,1.681,25.574,14.003,25.6,28.672v5.12h17.067v-5.12
	c-0.068-24.055-18.679-43.981-42.667-45.705v-8.909H358.4v8.875c-25.293,1.783-44.356,23.731-42.573,49.033
	c1.459,20.676,16.58,37.811,36.915,41.822l5.658,1.135v53.897c-4.395,0.538-8.738,1.271-13.03,2.227
	c-7.859-5.41-12.561-14.336-12.57-23.868v-5.12h-17.067v5.12c0.017,10.82,3.849,21.282,10.82,29.551
	c-11.793,4.514-22.903,10.658-33.007,18.236l10.24,13.653c52.787-39.586,127.667-28.894,167.253,23.893
	s28.894,127.667-23.893,167.253c-42.479,31.855-100.881,31.855-143.36,0l-10.24,13.653c60.322,45.244,145.903,33.015,191.147-27.307
	C502.417,425.212,512,396.464,512,366.93z M358.4,160.252l-2.313-0.461c-15.659-3.089-25.839-18.287-22.75-33.946
	c2.432-12.339,12.57-21.683,25.062-23.108V160.252z M391.398,231.403c-5.291-0.649-10.607-0.981-15.932-1.007v-49.323l2.313,0.461
	c15.642,3.063,25.839,18.227,22.775,33.869c-1.212,6.187-4.412,11.81-9.122,16H391.398z"/>
<path d="M375.467,51.196c65.98,0,119.467,53.487,119.467,119.467c0,25.847-8.38,51.004-23.893,71.68l13.653,10.24
	c17.801-23.595,27.392-52.361,27.307-81.92C511.915,95.297,450.833,34.215,375.467,34.13c-29.559-0.085-58.325,9.506-81.92,27.307
	l10.24,13.653C324.429,59.508,349.602,51.12,375.467,51.196z"/>
<path d="M315.733,401.063v5.12c0.068,24.055,18.679,43.981,42.667,45.705v8.909h17.067v-8.875
	c25.293-1.783,44.356-23.731,42.573-49.033c-1.459-20.676-16.58-37.811-36.915-41.822l-5.658-1.135v-60.928
	c14.566,1.681,25.574,14.003,25.6,28.672v5.12h17.067v-5.12c-0.068-24.055-18.679-43.981-42.667-45.705v-8.909H358.4v8.875
	c-25.293,1.783-44.356,23.731-42.573,49.033c1.459,20.676,16.58,37.811,36.915,41.822l5.658,1.135v60.928
	c-14.566-1.681-25.574-14.003-25.6-28.672v-5.12H315.733z M375.467,377.34l2.313,0.461c15.659,3.089,25.839,18.287,22.75,33.946
	c-2.432,12.339-12.57,21.683-25.062,23.108V377.34z M356.087,356.058c-15.659-3.089-25.839-18.287-22.75-33.946
	c2.432-12.339,12.57-21.683,25.062-23.108v57.515L356.087,356.058z"/>
<g>
</g>
<g>
</g>
<g>
</g>
<g>
</g>
<g>
</g>
<g>
</g>
<g>
</g>
<g>
</g>
<g>
</g>
<g>
</g>
<g>
</g>
<g>
</g>
<g>
</g>
<g>
</g>
<g>
</g>
</svg>
