<?xml version="1.0" encoding="iso-8859-1"?>
<!-- Generator: Adobe Illustrator 19.0.0, SVG Export Plug-In . SVG Version: 6.00 Build 0)  -->
<svg version="1.1" id="Capa_1" xmlns="http://www.w3.org/2000/svg" xmlns:xlink="http://www.w3.org/1999/xlink" x="0px" y="0px"
	 viewBox="0 0 490.667 490.667" style="enable-background:new 0 0 490.667 490.667;" xml:space="preserve">
<path style="fill:#FFC107;" d="M245.333,0C109.839,0,0,109.839,0,245.333s109.839,245.333,245.333,245.333
	s245.333-109.839,245.333-245.333C490.514,109.903,380.764,0.153,245.333,0z"/>
<g>
	<path style="fill:#FAFAFA;" d="M245.333,362.667c-38.2,2.666-71.459-25.842-74.667-64c0-5.891,4.776-10.667,10.667-10.667
		c5.891,0,10.667,4.776,10.667,10.667c3.337,26.292,26.95,45.182,53.333,42.667c26.383,2.516,49.996-16.375,53.333-42.667
		c-3.337-26.292-26.95-45.182-53.333-42.667c-38.2,2.666-71.459-25.842-74.667-64c3.208-38.158,36.467-66.666,74.667-64
		c38.2-2.666,71.459,25.842,74.667,64c0,5.891-4.776,10.667-10.667,10.667s-10.667-4.776-10.667-10.667
		c-3.337-26.292-26.95-45.182-53.333-42.667C218.95,146.818,195.337,165.708,192,192c3.337,26.292,26.95,45.182,53.333,42.667
		c38.2-2.666,71.459,25.842,74.667,64C316.792,336.825,283.533,365.332,245.333,362.667z"/>
	<path style="fill:#FAFAFA;" d="M245.333,384c-5.891,0-10.667-4.776-10.667-10.667v-256c0-5.891,4.776-10.667,10.667-10.667
		c5.891,0,10.667,4.776,10.667,10.667v256C256,379.224,251.224,384,245.333,384z"/>
</g>
<path d="M245.333,490.667C109.839,490.667,0,380.827,0,245.333S109.839,0,245.333,0s245.333,109.839,245.333,245.333
	C490.514,380.764,380.764,490.514,245.333,490.667z M245.333,21.333c-123.712,0-224,100.288-224,224s100.288,224,224,224
	s224-100.288,224-224C469.192,121.68,368.987,21.474,245.333,21.333z"/>
<path d="M245.333,362.667c-38.2,2.666-71.459-25.842-74.667-64c0-5.891,4.776-10.667,10.667-10.667
	c5.891,0,10.667,4.776,10.667,10.667c3.337,26.292,26.95,45.182,53.333,42.667c26.383,2.516,49.996-16.375,53.333-42.667
	c-3.337-26.292-26.95-45.182-53.333-42.667c-38.2,2.666-71.459-25.842-74.667-64c3.208-38.158,36.467-66.666,74.667-64
	c38.2-2.666,71.459,25.842,74.667,64c0,5.891-4.776,10.667-10.667,10.667s-10.667-4.776-10.667-10.667
	c-3.337-26.292-26.95-45.182-53.333-42.667C218.95,146.818,195.337,165.708,192,192c3.337,26.292,26.95,45.182,53.333,42.667
	c38.2-2.666,71.459,25.842,74.667,64C316.792,336.825,283.533,365.332,245.333,362.667z"/>
<path d="M245.333,384c-5.891,0-10.667-4.776-10.667-10.667v-256c0-5.891,4.776-10.667,10.667-10.667
	c5.891,0,10.667,4.776,10.667,10.667v256C256,379.224,251.224,384,245.333,384z"/>
<g>
</g>
<g>
</g>
<g>
</g>
<g>
</g>
<g>
</g>
<g>
</g>
<g>
</g>
<g>
</g>
<g>
</g>
<g>
</g>
<g>
</g>
<g>
</g>
<g>
</g>
<g>
</g>
<g>
</g>
</svg>
